<?xml version="1.0" standalone="no"?>
<!DOCTYPE svg PUBLIC "-//W3C//DTD SVG 20010904//EN"
 "http://www.w3.org/TR/2001/REC-SVG-20010904/DTD/svg10.dtd">
<svg version="1.0" xmlns="http://www.w3.org/2000/svg"
 width="512.000000pt" height="512.000000pt" viewBox="0 0 512.000000 512.000000"
 preserveAspectRatio="xMidYMid meet">
<metadata>
Created by potrace 1.14, written by Peter Selinger 2001-2017
</metadata>
<g transform="translate(0.000000,512.000000) scale(0.100000,-0.100000)"
fill="#000000" stroke="none">
<path d="M2319 4946 c-2 -2 -26 -6 -54 -10 -114 -13 -143 -19 -250 -46 -117
-31 -244 -75 -317 -110 -23 -11 -45 -20 -49 -20 -4 0 -56 -28 -116 -61 -739
-418 -1122 -1204 -979 -2005 14 -79 32 -152 62 -249 28 -89 62 -219 68 -260 9
-53 9 -180 0 -230 -4 -22 -7 -74 -8 -115 0 -60 5 -86 25 -130 56 -120 127
-148 295 -114 l29 5 1 -58 c1 -79 13 -292 18 -323 3 -14 7 -41 10 -60 28 -180
82 -260 175 -260 85 0 152 67 175 175 4 17 9 41 12 55 2 14 7 88 11 165 6 159
18 201 59 211 68 17 136 -63 149 -176 42 -379 188 -524 455 -451 152 43 151
43 143 -58 -7 -110 -8 -423 0 -480 16 -114 74 -191 145 -191 50 0 129 31 174
70 44 36 73 88 88 157 16 69 12 294 -6 383 -2 14 -7 83 -9 155 -5 122 -4 132
19 180 32 63 72 89 129 82 50 -7 86 -33 110 -78 16 -30 17 -49 11 -164 -16
-320 7 -394 149 -466 118 -61 207 -17 237 116 6 27 11 133 12 235 0 188 14
280 41 280 7 0 25 -14 41 -30 37 -40 77 -60 123 -62 141 -5 251 86 293 242 16
61 17 67 29 173 13 110 32 173 67 210 31 34 42 31 69 -14 18 -30 20 -48 16
-169 -9 -351 -9 -359 24 -425 38 -75 74 -98 151 -96 65 1 100 17 142 66 58 65
69 133 77 454 6 267 9 298 42 465 44 229 66 320 103 440 67 218 89 378 85 616
-4 231 -31 384 -107 605 -58 171 -210 448 -310 567 -13 15 -33 40 -45 55 -27
35 -163 174 -223 229 -57 51 -217 168 -295 216 -158 96 -356 180 -547 232
-125 34 -141 38 -228 51 -25 4 -56 9 -70 12 -29 6 -445 14 -451 9z"/>
</g>
</svg>
